<svg xmlns="http://www.w3.org/2000/svg" xmlns:xlink="http://www.w3.org/1999/xlink" width="500" zoomAndPan="magnify" viewBox="0 0 375 374.999991" height="500" preserveAspectRatio="xMidYMid meet" version="1.0"><defs><g/><clipPath id="4d4c382355"><rect x="0" width="160" y="0" height="10"/></clipPath><clipPath id="8dea69043c"><path d="M 55 134 L 189 134 L 189 253.585938 L 55 253.585938 Z M 55 134 " clip-rule="nonzero"/></clipPath><clipPath id="cc986e333c"><path d="M 124 156 L 195.558594 156 L 195.558594 188 L 124 188 Z M 124 156 " clip-rule="nonzero"/></clipPath></defs><g fill="#49993e" fill-opacity="1"><g transform="translate(120.400185, 224.489796)"><g><path d="M 38.640625 0 L 26.296875 0 L 11.8125 -16.671875 L 11.8125 0 L 2.859375 0 L 2.859375 -39.296875 L 11.8125 -39.296875 L 11.8125 -23.25 L 25.296875 -39.296875 L 36.15625 -39.296875 L 20.34375 -20.671875 Z M 38.640625 0 "/></g></g></g><g fill="#49993e" fill-opacity="1"><g transform="translate(156.842039, 224.489796)"><g><path d="M 27.578125 -11.046875 L 9.859375 -11.046875 C 9.859375 -9.335938 10.414062 -8.066406 11.53125 -7.234375 C 12.644531 -6.410156 13.851562 -6 15.15625 -6 C 16.519531 -6 17.597656 -6.179688 18.390625 -6.546875 C 19.179688 -6.910156 20.085938 -7.632812 21.109375 -8.71875 L 27.203125 -5.671875 C 24.660156 -1.410156 20.4375 0.71875 14.53125 0.71875 C 10.84375 0.71875 7.679688 -0.539062 5.046875 -3.0625 C 2.410156 -5.59375 1.09375 -8.632812 1.09375 -12.1875 C 1.09375 -15.75 2.410156 -18.800781 5.046875 -21.34375 C 7.679688 -23.882812 10.84375 -25.15625 14.53125 -25.15625 C 18.40625 -25.15625 21.554688 -24.035156 23.984375 -21.796875 C 26.410156 -19.554688 27.625 -16.359375 27.625 -12.203125 C 27.625 -11.628906 27.609375 -11.242188 27.578125 -11.046875 Z M 10.09375 -15.71875 L 19.390625 -15.71875 C 19.203125 -16.988281 18.703125 -17.960938 17.890625 -18.640625 C 17.078125 -19.328125 16.035156 -19.671875 14.765625 -19.671875 C 13.367188 -19.671875 12.253906 -19.304688 11.421875 -18.578125 C 10.597656 -17.847656 10.15625 -16.894531 10.09375 -15.71875 Z M 10.09375 -15.71875 "/></g></g></g><g fill="#49993e" fill-opacity="1"><g transform="translate(184.518727, 224.489796)"><g><path d="M 4.28125 -24.4375 L 4.28125 -33.53125 L 12.71875 -33.53125 L 12.71875 -24.4375 L 17.859375 -24.4375 L 17.859375 -18.015625 L 12.71875 -18.015625 L 12.71875 -10.25 C 12.71875 -7.988281 13.351562 -6.859375 14.625 -6.859375 C 14.945312 -6.859375 15.28125 -6.921875 15.625 -7.046875 C 15.976562 -7.171875 16.25 -7.300781 16.4375 -7.4375 L 16.71875 -7.625 L 18.8125 -0.8125 C 17.007812 0.207031 14.945312 0.71875 12.625 0.71875 C 11.039062 0.71875 9.675781 0.441406 8.53125 -0.109375 C 7.382812 -0.671875 6.515625 -1.421875 5.921875 -2.359375 C 5.335938 -3.296875 4.914062 -4.28125 4.65625 -5.3125 C 4.40625 -6.34375 4.28125 -7.445312 4.28125 -8.625 L 4.28125 -18.015625 L 0.765625 -18.015625 L 0.765625 -24.4375 Z M 4.28125 -24.4375 "/></g></g></g><g fill="#49993e" fill-opacity="1"><g transform="translate(202.286971, 224.489796)"><g><path d="M 2.859375 0 L 2.859375 -40.96875 L 11.296875 -40.96875 L 11.296875 -21.859375 L 11.390625 -21.859375 C 13.578125 -24.054688 15.910156 -25.15625 18.390625 -25.15625 C 19.597656 -25.15625 20.796875 -24.992188 21.984375 -24.671875 C 23.171875 -24.359375 24.3125 -23.867188 25.40625 -23.203125 C 26.507812 -22.535156 27.398438 -21.585938 28.078125 -20.359375 C 28.765625 -19.140625 29.109375 -17.722656 29.109375 -16.109375 L 29.109375 0 L 20.671875 0 L 20.671875 -13.8125 C 20.671875 -15.082031 20.265625 -16.191406 19.453125 -17.140625 C 18.648438 -18.097656 17.597656 -18.578125 16.296875 -18.578125 C 15.023438 -18.578125 13.875 -18.082031 12.84375 -17.09375 C 11.8125 -16.113281 11.296875 -15.019531 11.296875 -13.8125 L 11.296875 0 Z M 2.859375 0 "/></g></g></g><g fill="#49993e" fill-opacity="1"><g transform="translate(232.726593, 224.489796)"><g><path d="M 3.65625 -38.0625 C 4.644531 -39.050781 5.820312 -39.546875 7.1875 -39.546875 C 8.5625 -39.546875 9.738281 -39.050781 10.71875 -38.0625 C 11.707031 -37.082031 12.203125 -35.90625 12.203125 -34.53125 C 12.203125 -33.164062 11.707031 -31.988281 10.71875 -31 C 9.738281 -30.019531 8.5625 -29.53125 7.1875 -29.53125 C 5.820312 -29.53125 4.644531 -30.019531 3.65625 -31 C 2.675781 -31.988281 2.1875 -33.164062 2.1875 -34.53125 C 2.1875 -35.90625 2.675781 -37.082031 3.65625 -38.0625 Z M 2.859375 -24.4375 L 2.859375 0 L 11.296875 0 L 11.296875 -24.4375 Z M 2.859375 -24.4375 "/></g></g></g><g fill="#49993e" fill-opacity="1"><g transform="translate(246.064624, 224.489796)"><g><path d="M 2.859375 0 L 2.859375 -24.4375 L 11.296875 -24.4375 L 11.296875 -20.921875 L 11.390625 -20.921875 C 11.453125 -21.046875 11.550781 -21.203125 11.6875 -21.390625 C 11.832031 -21.578125 12.144531 -21.910156 12.625 -22.390625 C 13.101562 -22.867188 13.609375 -23.296875 14.140625 -23.671875 C 14.679688 -24.054688 15.378906 -24.398438 16.234375 -24.703125 C 17.097656 -25.003906 17.972656 -25.15625 18.859375 -25.15625 C 19.785156 -25.15625 20.691406 -25.023438 21.578125 -24.765625 C 22.472656 -24.515625 23.125 -24.265625 23.53125 -24.015625 L 24.203125 -23.625 L 20.671875 -16.484375 C 19.628906 -17.367188 18.171875 -17.8125 16.296875 -17.8125 C 15.273438 -17.8125 14.398438 -17.585938 13.671875 -17.140625 C 12.941406 -16.703125 12.425781 -16.164062 12.125 -15.53125 C 11.820312 -14.894531 11.609375 -14.351562 11.484375 -13.90625 C 11.359375 -13.46875 11.296875 -13.117188 11.296875 -12.859375 L 11.296875 0 Z M 2.859375 0 "/></g></g></g><g fill="#49993e" fill-opacity="1"><g transform="translate(268.739454, 224.489796)"><g><path d="M 3.65625 -38.0625 C 4.644531 -39.050781 5.820312 -39.546875 7.1875 -39.546875 C 8.5625 -39.546875 9.738281 -39.050781 10.71875 -38.0625 C 11.707031 -37.082031 12.203125 -35.90625 12.203125 -34.53125 C 12.203125 -33.164062 11.707031 -31.988281 10.71875 -31 C 9.738281 -30.019531 8.5625 -29.53125 7.1875 -29.53125 C 5.820312 -29.53125 4.644531 -30.019531 3.65625 -31 C 2.675781 -31.988281 2.1875 -33.164062 2.1875 -34.53125 C 2.1875 -35.90625 2.675781 -37.082031 3.65625 -38.0625 Z M 2.859375 -24.4375 L 2.859375 0 L 11.296875 0 L 11.296875 -24.4375 Z M 2.859375 -24.4375 "/></g></g></g><g transform="matrix(1, 0, 0, 1, 129, 231)"><g clip-path="url(#4d4c382355)"><g fill="#1a7b3b" fill-opacity="1"><g transform="translate(0.542574, 7.275662)"><g><path d="M 2.984375 -5.40625 C 3.460938 -5.40625 3.878906 -5.328125 4.234375 -5.171875 C 4.585938 -5.015625 4.859375 -4.785156 5.046875 -4.484375 C 5.242188 -4.191406 5.34375 -3.847656 5.34375 -3.453125 C 5.34375 -3.054688 5.242188 -2.707031 5.046875 -2.40625 C 4.859375 -2.113281 4.585938 -1.890625 4.234375 -1.734375 C 3.878906 -1.578125 3.460938 -1.5 2.984375 -1.5 L 1.890625 -1.5 L 1.890625 0 L 0.640625 0 L 0.640625 -5.40625 Z M 2.921875 -2.515625 C 3.296875 -2.515625 3.578125 -2.59375 3.765625 -2.75 C 3.960938 -2.914062 4.0625 -3.148438 4.0625 -3.453125 C 4.0625 -3.753906 3.960938 -3.984375 3.765625 -4.140625 C 3.578125 -4.304688 3.296875 -4.390625 2.921875 -4.390625 L 1.890625 -4.390625 L 1.890625 -2.515625 Z M 2.921875 -2.515625 "/></g></g></g><g fill="#1a7b3b" fill-opacity="1"><g transform="translate(7.279394, 7.275662)"><g><path d="M 3.265625 0.09375 C 2.703125 0.09375 2.191406 -0.0234375 1.734375 -0.265625 C 1.285156 -0.515625 0.929688 -0.847656 0.671875 -1.265625 C 0.421875 -1.691406 0.296875 -2.171875 0.296875 -2.703125 C 0.296875 -3.234375 0.421875 -3.710938 0.671875 -4.140625 C 0.929688 -4.566406 1.285156 -4.898438 1.734375 -5.140625 C 2.191406 -5.378906 2.703125 -5.5 3.265625 -5.5 C 3.828125 -5.5 4.332031 -5.378906 4.78125 -5.140625 C 5.226562 -4.898438 5.578125 -4.566406 5.828125 -4.140625 C 6.085938 -3.710938 6.21875 -3.234375 6.21875 -2.703125 C 6.21875 -2.171875 6.085938 -1.691406 5.828125 -1.265625 C 5.578125 -0.847656 5.226562 -0.515625 4.78125 -0.265625 C 4.332031 -0.0234375 3.828125 0.09375 3.265625 0.09375 Z M 3.265625 -0.96875 C 3.585938 -0.96875 3.875 -1.039062 4.125 -1.1875 C 4.382812 -1.34375 4.585938 -1.550781 4.734375 -1.8125 C 4.878906 -2.070312 4.953125 -2.367188 4.953125 -2.703125 C 4.953125 -3.035156 4.878906 -3.332031 4.734375 -3.59375 C 4.585938 -3.863281 4.382812 -4.070312 4.125 -4.21875 C 3.875 -4.363281 3.585938 -4.4375 3.265625 -4.4375 C 2.941406 -4.4375 2.648438 -4.363281 2.390625 -4.21875 C 2.140625 -4.070312 1.9375 -3.863281 1.78125 -3.59375 C 1.632812 -3.332031 1.5625 -3.035156 1.5625 -2.703125 C 1.5625 -2.367188 1.632812 -2.070312 1.78125 -1.8125 C 1.9375 -1.550781 2.140625 -1.34375 2.390625 -1.1875 C 2.648438 -1.039062 2.941406 -0.96875 3.265625 -0.96875 Z M 3.265625 -0.96875 "/></g></g></g><g fill="#1a7b3b" fill-opacity="1"><g transform="translate(14.882488, 7.275662)"><g><path d="M 3.046875 0.09375 C 2.273438 0.09375 1.671875 -0.117188 1.234375 -0.546875 C 0.804688 -0.972656 0.59375 -1.582031 0.59375 -2.375 L 0.59375 -5.40625 L 1.84375 -5.40625 L 1.84375 -2.421875 C 1.84375 -1.453125 2.25 -0.96875 3.0625 -0.96875 C 3.445312 -0.96875 3.742188 -1.082031 3.953125 -1.3125 C 4.160156 -1.550781 4.265625 -1.921875 4.265625 -2.421875 L 4.265625 -5.40625 L 5.5 -5.40625 L 5.5 -2.375 C 5.5 -1.582031 5.28125 -0.972656 4.84375 -0.546875 C 4.414062 -0.117188 3.816406 0.09375 3.046875 0.09375 Z M 3.046875 0.09375 "/></g></g></g><g fill="#1a7b3b" fill-opacity="1"><g transform="translate(22.05245, 7.275662)"><g><path d="M 4.09375 0 L 3.046875 -1.515625 L 1.890625 -1.515625 L 1.890625 0 L 0.640625 0 L 0.640625 -5.40625 L 2.984375 -5.40625 C 3.460938 -5.40625 3.878906 -5.328125 4.234375 -5.171875 C 4.585938 -5.015625 4.859375 -4.785156 5.046875 -4.484375 C 5.242188 -4.191406 5.34375 -3.847656 5.34375 -3.453125 C 5.34375 -3.046875 5.242188 -2.695312 5.046875 -2.40625 C 4.847656 -2.113281 4.570312 -1.890625 4.21875 -1.734375 L 5.4375 0 Z M 4.0625 -3.453125 C 4.0625 -3.753906 3.960938 -3.984375 3.765625 -4.140625 C 3.578125 -4.304688 3.296875 -4.390625 2.921875 -4.390625 L 1.890625 -4.390625 L 1.890625 -2.5 L 2.921875 -2.5 C 3.296875 -2.5 3.578125 -2.582031 3.765625 -2.75 C 3.960938 -2.914062 4.0625 -3.148438 4.0625 -3.453125 Z M 4.0625 -3.453125 "/></g></g></g><g fill="#1a7b3b" fill-opacity="1"><g transform="translate(28.812481, 7.275662)"><g/></g></g><g fill="#1a7b3b" fill-opacity="1"><g transform="translate(32.076473, 7.275662)"><g><path d="M 0.640625 -5.40625 L 1.890625 -5.40625 L 1.890625 -1.015625 L 4.609375 -1.015625 L 4.609375 0 L 0.640625 0 Z M 0.640625 -5.40625 "/></g></g></g><g fill="#1a7b3b" fill-opacity="1"><g transform="translate(37.823265, 7.275662)"><g><path d="M 4.828125 -1 L 4.828125 0 L 0.640625 0 L 0.640625 -5.40625 L 4.734375 -5.40625 L 4.734375 -4.40625 L 1.890625 -4.40625 L 1.890625 -3.234375 L 4.40625 -3.234375 L 4.40625 -2.265625 L 1.890625 -2.265625 L 1.890625 -1 Z M 4.828125 -1 "/></g></g></g><g fill="#1a7b3b" fill-opacity="1"><g transform="translate(44.088281, 7.275662)"><g><path d="M 2.421875 0.09375 C 1.992188 0.09375 1.578125 0.0351562 1.171875 -0.078125 C 0.773438 -0.191406 0.457031 -0.34375 0.21875 -0.53125 L 0.640625 -1.484375 C 0.867188 -1.304688 1.144531 -1.164062 1.46875 -1.0625 C 1.789062 -0.957031 2.109375 -0.90625 2.421875 -0.90625 C 2.785156 -0.90625 3.050781 -0.957031 3.21875 -1.0625 C 3.382812 -1.175781 3.46875 -1.320312 3.46875 -1.5 C 3.46875 -1.625 3.414062 -1.726562 3.3125 -1.8125 C 3.21875 -1.894531 3.09375 -1.960938 2.9375 -2.015625 C 2.78125 -2.066406 2.566406 -2.125 2.296875 -2.1875 C 1.878906 -2.28125 1.539062 -2.375 1.28125 -2.46875 C 1.019531 -2.570312 0.796875 -2.734375 0.609375 -2.953125 C 0.421875 -3.171875 0.328125 -3.460938 0.328125 -3.828125 C 0.328125 -4.140625 0.410156 -4.421875 0.578125 -4.671875 C 0.742188 -4.929688 1 -5.132812 1.34375 -5.28125 C 1.6875 -5.425781 2.109375 -5.5 2.609375 -5.5 C 2.953125 -5.5 3.285156 -5.457031 3.609375 -5.375 C 3.941406 -5.300781 4.234375 -5.1875 4.484375 -5.03125 L 4.09375 -4.078125 C 3.59375 -4.359375 3.09375 -4.5 2.59375 -4.5 C 2.25 -4.5 1.988281 -4.441406 1.8125 -4.328125 C 1.644531 -4.210938 1.5625 -4.0625 1.5625 -3.875 C 1.5625 -3.695312 1.660156 -3.5625 1.859375 -3.46875 C 2.054688 -3.375 2.351562 -3.285156 2.75 -3.203125 C 3.15625 -3.109375 3.488281 -3.007812 3.75 -2.90625 C 4.019531 -2.8125 4.25 -2.65625 4.4375 -2.4375 C 4.625 -2.226562 4.71875 -1.941406 4.71875 -1.578125 C 4.71875 -1.273438 4.628906 -0.992188 4.453125 -0.734375 C 4.285156 -0.484375 4.023438 -0.28125 3.671875 -0.125 C 3.328125 0.0195312 2.910156 0.09375 2.421875 0.09375 Z M 2.421875 0.09375 "/></g></g></g><g fill="#1a7b3b" fill-opacity="1"><g transform="translate(50.098051, 7.275662)"><g/></g></g><g fill="#1a7b3b" fill-opacity="1"><g transform="translate(53.362043, 7.275662)"><g><path d="M 2.984375 -5.40625 C 3.460938 -5.40625 3.878906 -5.328125 4.234375 -5.171875 C 4.585938 -5.015625 4.859375 -4.785156 5.046875 -4.484375 C 5.242188 -4.191406 5.34375 -3.847656 5.34375 -3.453125 C 5.34375 -3.054688 5.242188 -2.707031 5.046875 -2.40625 C 4.859375 -2.113281 4.585938 -1.890625 4.234375 -1.734375 C 3.878906 -1.578125 3.460938 -1.5 2.984375 -1.5 L 1.890625 -1.5 L 1.890625 0 L 0.640625 0 L 0.640625 -5.40625 Z M 2.921875 -2.515625 C 3.296875 -2.515625 3.578125 -2.59375 3.765625 -2.75 C 3.960938 -2.914062 4.0625 -3.148438 4.0625 -3.453125 C 4.0625 -3.753906 3.960938 -3.984375 3.765625 -4.140625 C 3.578125 -4.304688 3.296875 -4.390625 2.921875 -4.390625 L 1.890625 -4.390625 L 1.890625 -2.515625 Z M 2.921875 -2.515625 "/></g></g></g><g fill="#1a7b3b" fill-opacity="1"><g transform="translate(60.098863, 7.275662)"><g><path d="M 4.09375 0 L 3.046875 -1.515625 L 1.890625 -1.515625 L 1.890625 0 L 0.640625 0 L 0.640625 -5.40625 L 2.984375 -5.40625 C 3.460938 -5.40625 3.878906 -5.328125 4.234375 -5.171875 C 4.585938 -5.015625 4.859375 -4.785156 5.046875 -4.484375 C 5.242188 -4.191406 5.34375 -3.847656 5.34375 -3.453125 C 5.34375 -3.046875 5.242188 -2.695312 5.046875 -2.40625 C 4.847656 -2.113281 4.570312 -1.890625 4.21875 -1.734375 L 5.4375 0 Z M 4.0625 -3.453125 C 4.0625 -3.753906 3.960938 -3.984375 3.765625 -4.140625 C 3.578125 -4.304688 3.296875 -4.390625 2.921875 -4.390625 L 1.890625 -4.390625 L 1.890625 -2.5 L 2.921875 -2.5 C 3.296875 -2.5 3.578125 -2.582031 3.765625 -2.75 C 3.960938 -2.914062 4.0625 -3.148438 4.0625 -3.453125 Z M 4.0625 -3.453125 "/></g></g></g><g fill="#1a7b3b" fill-opacity="1"><g transform="translate(66.858893, 7.275662)"><g><path d="M 3.265625 0.09375 C 2.703125 0.09375 2.191406 -0.0234375 1.734375 -0.265625 C 1.285156 -0.515625 0.929688 -0.847656 0.671875 -1.265625 C 0.421875 -1.691406 0.296875 -2.171875 0.296875 -2.703125 C 0.296875 -3.234375 0.421875 -3.710938 0.671875 -4.140625 C 0.929688 -4.566406 1.285156 -4.898438 1.734375 -5.140625 C 2.191406 -5.378906 2.703125 -5.5 3.265625 -5.5 C 3.828125 -5.5 4.332031 -5.378906 4.78125 -5.140625 C 5.226562 -4.898438 5.578125 -4.566406 5.828125 -4.140625 C 6.085938 -3.710938 6.21875 -3.234375 6.21875 -2.703125 C 6.21875 -2.171875 6.085938 -1.691406 5.828125 -1.265625 C 5.578125 -0.847656 5.226562 -0.515625 4.78125 -0.265625 C 4.332031 -0.0234375 3.828125 0.09375 3.265625 0.09375 Z M 3.265625 -0.96875 C 3.585938 -0.96875 3.875 -1.039062 4.125 -1.1875 C 4.382812 -1.34375 4.585938 -1.550781 4.734375 -1.8125 C 4.878906 -2.070312 4.953125 -2.367188 4.953125 -2.703125 C 4.953125 -3.035156 4.878906 -3.332031 4.734375 -3.59375 C 4.585938 -3.863281 4.382812 -4.070312 4.125 -4.21875 C 3.875 -4.363281 3.585938 -4.4375 3.265625 -4.4375 C 2.941406 -4.4375 2.648438 -4.363281 2.390625 -4.21875 C 2.140625 -4.070312 1.9375 -3.863281 1.78125 -3.59375 C 1.632812 -3.332031 1.5625 -3.035156 1.5625 -2.703125 C 1.5625 -2.367188 1.632812 -2.070312 1.78125 -1.8125 C 1.9375 -1.550781 2.140625 -1.34375 2.390625 -1.1875 C 2.648438 -1.039062 2.941406 -0.96875 3.265625 -0.96875 Z M 3.265625 -0.96875 "/></g></g></g><g fill="#1a7b3b" fill-opacity="1"><g transform="translate(74.461987, 7.275662)"><g><path d="M 0.640625 -5.40625 L 3.09375 -5.40625 C 3.6875 -5.40625 4.207031 -5.289062 4.65625 -5.0625 C 5.113281 -4.84375 5.46875 -4.53125 5.71875 -4.125 C 5.96875 -3.71875 6.09375 -3.242188 6.09375 -2.703125 C 6.09375 -2.160156 5.96875 -1.6875 5.71875 -1.28125 C 5.46875 -0.875 5.113281 -0.554688 4.65625 -0.328125 C 4.207031 -0.109375 3.6875 0 3.09375 0 L 0.640625 0 Z M 3.046875 -1.03125 C 3.585938 -1.03125 4.015625 -1.179688 4.328125 -1.484375 C 4.648438 -1.785156 4.8125 -2.191406 4.8125 -2.703125 C 4.8125 -3.222656 4.648438 -3.632812 4.328125 -3.9375 C 4.015625 -4.238281 3.585938 -4.390625 3.046875 -4.390625 L 1.890625 -4.390625 L 1.890625 -1.03125 Z M 3.046875 -1.03125 "/></g></g></g><g fill="#1a7b3b" fill-opacity="1"><g transform="translate(81.925858, 7.275662)"><g><path d="M 3.046875 0.09375 C 2.273438 0.09375 1.671875 -0.117188 1.234375 -0.546875 C 0.804688 -0.972656 0.59375 -1.582031 0.59375 -2.375 L 0.59375 -5.40625 L 1.84375 -5.40625 L 1.84375 -2.421875 C 1.84375 -1.453125 2.25 -0.96875 3.0625 -0.96875 C 3.445312 -0.96875 3.742188 -1.082031 3.953125 -1.3125 C 4.160156 -1.550781 4.265625 -1.921875 4.265625 -2.421875 L 4.265625 -5.40625 L 5.5 -5.40625 L 5.5 -2.375 C 5.5 -1.582031 5.28125 -0.972656 4.84375 -0.546875 C 4.414062 -0.117188 3.816406 0.09375 3.046875 0.09375 Z M 3.046875 0.09375 "/></g></g></g><g fill="#1a7b3b" fill-opacity="1"><g transform="translate(89.09582, 7.275662)"><g><path d="M 0.640625 -5.40625 L 1.890625 -5.40625 L 1.890625 0 L 0.640625 0 Z M 0.640625 -5.40625 "/></g></g></g><g fill="#1a7b3b" fill-opacity="1"><g transform="translate(92.707871, 7.275662)"><g><path d="M 1.765625 -4.390625 L 0.03125 -4.390625 L 0.03125 -5.40625 L 4.75 -5.40625 L 4.75 -4.390625 L 3.015625 -4.390625 L 3.015625 0 L 1.765625 0 Z M 1.765625 -4.390625 "/></g></g></g><g fill="#1a7b3b" fill-opacity="1"><g transform="translate(98.562947, 7.275662)"><g><path d="M 2.421875 0.09375 C 1.992188 0.09375 1.578125 0.0351562 1.171875 -0.078125 C 0.773438 -0.191406 0.457031 -0.34375 0.21875 -0.53125 L 0.640625 -1.484375 C 0.867188 -1.304688 1.144531 -1.164062 1.46875 -1.0625 C 1.789062 -0.957031 2.109375 -0.90625 2.421875 -0.90625 C 2.785156 -0.90625 3.050781 -0.957031 3.21875 -1.0625 C 3.382812 -1.175781 3.46875 -1.320312 3.46875 -1.5 C 3.46875 -1.625 3.414062 -1.726562 3.3125 -1.8125 C 3.21875 -1.894531 3.09375 -1.960938 2.9375 -2.015625 C 2.78125 -2.066406 2.566406 -2.125 2.296875 -2.1875 C 1.878906 -2.28125 1.539062 -2.375 1.28125 -2.46875 C 1.019531 -2.570312 0.796875 -2.734375 0.609375 -2.953125 C 0.421875 -3.171875 0.328125 -3.460938 0.328125 -3.828125 C 0.328125 -4.140625 0.410156 -4.421875 0.578125 -4.671875 C 0.742188 -4.929688 1 -5.132812 1.34375 -5.28125 C 1.6875 -5.425781 2.109375 -5.5 2.609375 -5.5 C 2.953125 -5.5 3.285156 -5.457031 3.609375 -5.375 C 3.941406 -5.300781 4.234375 -5.1875 4.484375 -5.03125 L 4.09375 -4.078125 C 3.59375 -4.359375 3.09375 -4.5 2.59375 -4.5 C 2.25 -4.5 1.988281 -4.441406 1.8125 -4.328125 C 1.644531 -4.210938 1.5625 -4.0625 1.5625 -3.875 C 1.5625 -3.695312 1.660156 -3.5625 1.859375 -3.46875 C 2.054688 -3.375 2.351562 -3.285156 2.75 -3.203125 C 3.15625 -3.109375 3.488281 -3.007812 3.75 -2.90625 C 4.019531 -2.8125 4.25 -2.65625 4.4375 -2.4375 C 4.625 -2.226562 4.71875 -1.941406 4.71875 -1.578125 C 4.71875 -1.273438 4.628906 -0.992188 4.453125 -0.734375 C 4.285156 -0.484375 4.023438 -0.28125 3.671875 -0.125 C 3.328125 0.0195312 2.910156 0.09375 2.421875 0.09375 Z M 2.421875 0.09375 "/></g></g></g><g fill="#1a7b3b" fill-opacity="1"><g transform="translate(104.572716, 7.275662)"><g/></g></g><g fill="#1a7b3b" fill-opacity="1"><g transform="translate(107.836708, 7.275662)"><g><path d="M 4.203125 -1.15625 L 1.6875 -1.15625 L 1.21875 0 L -0.0625 0 L 2.34375 -5.40625 L 3.578125 -5.40625 L 6 0 L 4.6875 0 Z M 3.8125 -2.109375 L 2.953125 -4.1875 L 2.09375 -2.109375 Z M 3.8125 -2.109375 "/></g></g></g><g fill="#1a7b3b" fill-opacity="1"><g transform="translate(114.836505, 7.275662)"><g><path d="M 4.296875 -2.796875 L 5.4375 -2.796875 L 5.4375 -0.59375 C 5.144531 -0.375 4.804688 -0.203125 4.421875 -0.078125 C 4.035156 0.0351562 3.644531 0.09375 3.25 0.09375 C 2.6875 0.09375 2.179688 -0.0234375 1.734375 -0.265625 C 1.285156 -0.503906 0.929688 -0.835938 0.671875 -1.265625 C 0.421875 -1.691406 0.296875 -2.171875 0.296875 -2.703125 C 0.296875 -3.242188 0.421875 -3.722656 0.671875 -4.140625 C 0.929688 -4.566406 1.285156 -4.898438 1.734375 -5.140625 C 2.191406 -5.378906 2.707031 -5.5 3.28125 -5.5 C 3.75 -5.5 4.175781 -5.421875 4.5625 -5.265625 C 4.957031 -5.109375 5.285156 -4.878906 5.546875 -4.578125 L 4.734375 -3.828125 C 4.347656 -4.234375 3.882812 -4.4375 3.34375 -4.4375 C 3 -4.4375 2.691406 -4.363281 2.421875 -4.21875 C 2.148438 -4.070312 1.9375 -3.867188 1.78125 -3.609375 C 1.632812 -3.347656 1.5625 -3.046875 1.5625 -2.703125 C 1.5625 -2.367188 1.632812 -2.070312 1.78125 -1.8125 C 1.9375 -1.550781 2.144531 -1.34375 2.40625 -1.1875 C 2.675781 -1.039062 2.984375 -0.96875 3.328125 -0.96875 C 3.679688 -0.96875 4.003906 -1.046875 4.296875 -1.203125 Z M 4.296875 -2.796875 "/></g></g></g><g fill="#1a7b3b" fill-opacity="1"><g transform="translate(121.874974, 7.275662)"><g><path d="M 4.09375 0 L 3.046875 -1.515625 L 1.890625 -1.515625 L 1.890625 0 L 0.640625 0 L 0.640625 -5.40625 L 2.984375 -5.40625 C 3.460938 -5.40625 3.878906 -5.328125 4.234375 -5.171875 C 4.585938 -5.015625 4.859375 -4.785156 5.046875 -4.484375 C 5.242188 -4.191406 5.34375 -3.847656 5.34375 -3.453125 C 5.34375 -3.046875 5.242188 -2.695312 5.046875 -2.40625 C 4.847656 -2.113281 4.570312 -1.890625 4.21875 -1.734375 L 5.4375 0 Z M 4.0625 -3.453125 C 4.0625 -3.753906 3.960938 -3.984375 3.765625 -4.140625 C 3.578125 -4.304688 3.296875 -4.390625 2.921875 -4.390625 L 1.890625 -4.390625 L 1.890625 -2.5 L 2.921875 -2.5 C 3.296875 -2.5 3.578125 -2.582031 3.765625 -2.75 C 3.960938 -2.914062 4.0625 -3.148438 4.0625 -3.453125 Z M 4.0625 -3.453125 "/></g></g></g><g fill="#1a7b3b" fill-opacity="1"><g transform="translate(128.635004, 7.275662)"><g><path d="M 0.640625 -5.40625 L 1.890625 -5.40625 L 1.890625 0 L 0.640625 0 Z M 0.640625 -5.40625 "/></g></g></g><g fill="#1a7b3b" fill-opacity="1"><g transform="translate(132.247056, 7.275662)"><g><path d="M 3.234375 0.09375 C 2.679688 0.09375 2.179688 -0.0234375 1.734375 -0.265625 C 1.285156 -0.503906 0.929688 -0.835938 0.671875 -1.265625 C 0.421875 -1.691406 0.296875 -2.171875 0.296875 -2.703125 C 0.296875 -3.242188 0.421875 -3.722656 0.671875 -4.140625 C 0.929688 -4.566406 1.285156 -4.898438 1.734375 -5.140625 C 2.179688 -5.378906 2.679688 -5.5 3.234375 -5.5 C 3.703125 -5.5 4.125 -5.414062 4.5 -5.25 C 4.882812 -5.09375 5.207031 -4.859375 5.46875 -4.546875 L 4.65625 -3.8125 C 4.289062 -4.226562 3.835938 -4.4375 3.296875 -4.4375 C 2.960938 -4.4375 2.664062 -4.363281 2.40625 -4.21875 C 2.144531 -4.070312 1.9375 -3.863281 1.78125 -3.59375 C 1.632812 -3.332031 1.5625 -3.035156 1.5625 -2.703125 C 1.5625 -2.367188 1.632812 -2.070312 1.78125 -1.8125 C 1.9375 -1.550781 2.144531 -1.34375 2.40625 -1.1875 C 2.664062 -1.039062 2.960938 -0.96875 3.296875 -0.96875 C 3.835938 -0.96875 4.289062 -1.179688 4.65625 -1.609375 L 5.46875 -0.875 C 5.207031 -0.5625 4.882812 -0.320312 4.5 -0.15625 C 4.125 0.0078125 3.703125 0.09375 3.234375 0.09375 Z M 3.234375 0.09375 "/></g></g></g><g fill="#1a7b3b" fill-opacity="1"><g transform="translate(138.991616, 7.275662)"><g><path d="M 3.265625 0.09375 C 2.703125 0.09375 2.191406 -0.0234375 1.734375 -0.265625 C 1.285156 -0.515625 0.929688 -0.847656 0.671875 -1.265625 C 0.421875 -1.691406 0.296875 -2.171875 0.296875 -2.703125 C 0.296875 -3.234375 0.421875 -3.710938 0.671875 -4.140625 C 0.929688 -4.566406 1.285156 -4.898438 1.734375 -5.140625 C 2.191406 -5.378906 2.703125 -5.5 3.265625 -5.5 C 3.828125 -5.5 4.332031 -5.378906 4.78125 -5.140625 C 5.226562 -4.898438 5.578125 -4.566406 5.828125 -4.140625 C 6.085938 -3.710938 6.21875 -3.234375 6.21875 -2.703125 C 6.21875 -2.171875 6.085938 -1.691406 5.828125 -1.265625 C 5.578125 -0.847656 5.226562 -0.515625 4.78125 -0.265625 C 4.332031 -0.0234375 3.828125 0.09375 3.265625 0.09375 Z M 3.265625 -0.96875 C 3.585938 -0.96875 3.875 -1.039062 4.125 -1.1875 C 4.382812 -1.34375 4.585938 -1.550781 4.734375 -1.8125 C 4.878906 -2.070312 4.953125 -2.367188 4.953125 -2.703125 C 4.953125 -3.035156 4.878906 -3.332031 4.734375 -3.59375 C 4.585938 -3.863281 4.382812 -4.070312 4.125 -4.21875 C 3.875 -4.363281 3.585938 -4.4375 3.265625 -4.4375 C 2.941406 -4.4375 2.648438 -4.363281 2.390625 -4.21875 C 2.140625 -4.070312 1.9375 -3.863281 1.78125 -3.59375 C 1.632812 -3.332031 1.5625 -3.035156 1.5625 -2.703125 C 1.5625 -2.367188 1.632812 -2.070312 1.78125 -1.8125 C 1.9375 -1.550781 2.140625 -1.34375 2.390625 -1.1875 C 2.648438 -1.039062 2.941406 -0.96875 3.265625 -0.96875 Z M 3.265625 -0.96875 "/></g></g></g><g fill="#1a7b3b" fill-opacity="1"><g transform="translate(146.59471, 7.275662)"><g><path d="M 0.640625 -5.40625 L 1.890625 -5.40625 L 1.890625 -1.015625 L 4.609375 -1.015625 L 4.609375 0 L 0.640625 0 Z M 0.640625 -5.40625 "/></g></g></g><g fill="#1a7b3b" fill-opacity="1"><g transform="translate(152.341502, 7.275662)"><g><path d="M 4.828125 -1 L 4.828125 0 L 0.640625 0 L 0.640625 -5.40625 L 4.734375 -5.40625 L 4.734375 -4.40625 L 1.890625 -4.40625 L 1.890625 -3.234375 L 4.40625 -3.234375 L 4.40625 -2.265625 L 1.890625 -2.265625 L 1.890625 -1 Z M 4.828125 -1 "/></g></g></g></g></g><g clip-path="url(#8dea69043c)"><path fill="#74b540" d="M 110.359375 253.210938 C 110.359375 253.210938 88.265625 211.191406 113.238281 174.929688 C 138.214844 138.667969 177.355469 152.117188 188.160156 156.4375 C 188.160156 156.4375 135.8125 122.339844 99.550781 177.808594 C 99.550781 177.808594 90.1875 143.472656 55.609375 134.347656 C 55.609375 134.347656 89.570312 151.21875 93.746094 192.355469 C 89.433594 212.550781 96.183594 238.53125 110.359375 253.210938 Z M 110.359375 253.210938 " fill-opacity="1" fill-rule="evenodd"/></g><path fill="#74b540" d="M 105.332031 133.167969 C 110.765625 133.167969 115.167969 137.570312 115.167969 143.003906 C 115.167969 148.433594 110.765625 152.835938 105.332031 152.835938 C 99.902344 152.835938 95.5 148.433594 95.5 143.003906 C 95.5 137.574219 99.902344 133.167969 105.332031 133.167969 Z M 105.332031 133.167969 " fill-opacity="1" fill-rule="evenodd"/><g clip-path="url(#cc986e333c)"><path fill="#49993e" d="M 195.652344 166.09375 C 195.652344 166.09375 153.042969 141.835938 126.238281 169.734375 C 126.238281 169.734375 146.851562 160.703125 168.777344 167.257812 C 168.777344 167.257812 142.046875 165.144531 124.78125 176.363281 C 124.78125 176.363281 139.128906 188 157.945312 187.957031 C 177.855469 187.910156 195.652344 166.09375 195.652344 166.09375 Z M 195.652344 166.09375 " fill-opacity="1" fill-rule="evenodd"/></g><path fill="#49993e" d="M 49.34375 152.1875 C 49.34375 152.1875 87.410156 162.152344 87.597656 191.039062 C 87.597656 191.039062 75.570312 171.8125 64.207031 166.984375 C 64.207031 166.984375 80.632812 182.09375 84.171875 194.285156 C 84.171875 194.285156 73.457031 196.710938 63.136719 189.226562 C 53.089844 181.933594 46.316406 163.15625 49.34375 152.1875 Z M 49.34375 152.1875 " fill-opacity="1" fill-rule="evenodd"/></svg>